<svg width="16" height="17" viewBox="0 0 16 17" fill="none" xmlns="http://www.w3.org/2000/svg">
<g id="Icon pack Variants">
<path id="Union" fill-rule="evenodd" clip-rule="evenodd" d="M2.81117 1.5C1.81089 1.5 1 2.31252 1 3.31481V13.6852C1 14.6875 1.81089 15.5 2.81117 15.5H13.1607C14.161 15.5 14.9719 14.6875 14.9719 13.6852V11.2654C14.9719 10.8359 14.6244 10.4877 14.1957 10.4877C13.767 10.4877 13.4195 10.8359 13.4195 11.2654V13.6852C13.4195 13.8284 13.3036 13.9444 13.1607 13.9444H2.81117C2.66828 13.9444 2.55243 13.8284 2.55243 13.6852V3.31481C2.55243 3.17163 2.66828 3.05556 2.81117 3.05556H7.98596C8.41465 3.05556 8.76217 2.70733 8.76217 2.27778C8.76217 1.84822 8.41465 1.5 7.98596 1.5H2.81117ZM13.8434 2.33142C13.1398 1.73381 12.1004 1.76151 11.4295 2.39575L4.8354 8.62925C4.61422 8.83834 4.44914 9.09986 4.35537 9.3897L4.11885 10.1208C3.63361 11.6207 5.15673 12.9845 6.58982 12.3332L7.44414 11.945C7.62628 11.8622 7.79349 11.7498 7.93897 11.6123L14.4317 5.47455C15.2173 4.73193 15.1838 3.46983 14.3599 2.77009L13.8434 2.33142ZM12.4948 3.52723C12.5906 3.43663 12.7391 3.43267 12.8396 3.51804L13.3561 3.95672C13.4738 4.05668 13.4786 4.23698 13.3664 4.34307L6.87364 10.4808C6.85285 10.5004 6.82897 10.5165 6.80295 10.5283L5.94863 10.9165C5.7439 11.0096 5.52631 10.8148 5.59563 10.6005L5.83215 9.86937C5.84555 9.82796 5.86913 9.7906 5.90073 9.76073L12.4948 3.52723Z" fill="#33404F"/>
</g>
</svg>
